  0
SECTION
  2
HEADER
  9
$ACADVER
  1
AC1009
  9
$FILLMODE
 70
 0
  9
$SPLFRAME
 70
 1
  9
$EXTMIN
 10
0
 20
0
 30
0.0
  9
$EXTMAX
 10
1058.33
 20
1058.33
 30
0.0
  0
ENDSEC
  0
SECTION
  2
TABLES
  0
TABLE
  2
LAYER
 70
1
  0
LAYER
  2
0
 70
     0
 62
     7
  6
CONTINUOUS
  0
ENDTAB
  0
ENDSEC
  0
SECTION
  2
ENTITIES
  0
LINE
  8
0
 62
     0
 10
0.0950846
 20
114.558
 30
0.0
 11
362.045
 21
114.558
 31
0.0
  0
LINE
  8
0
 62
     0
 10
362.045
 20
114.558
 30
0.0
 11
362.045
 21
0.257693
 31
0.0
  0
LINE
  8
0
 62
     0
 10
362.045
 20
0.257693
 30
0.0
 11
0.0950846
 21
0.257693
 31
0.0
  0
LINE
  8
0
 62
     0
 10
0.0950846
 20
0.257693
 30
0.0
 11
0.0950846
 21
114.558
 31
0.0
  0
LINE
  8
0
 62
     0
 10
200.262
 20
16.7845
 30
0.0
 11
200.262
 21
12.0826
 31
0.0
  0
LINE
  8
0
 62
     0
 10
200.262
 20
12.0826
 30
0.0
 11
160.638
 21
12.0826
 31
0.0
  0
LINE
  8
0
 62
     0
 10
160.638
 20
12.0826
 30
0.0
 11
160.638
 21
15.3142
 31
0.0
  0
LINE
  8
0
 62
     0
 10
160.638
 20
15.3142
 30
0.0
 11
153.887
 21
15.3142
 31
0.0
  0
LINE
  8
0
 62
     0
 10
153.887
 20
15.3142
 30
0.0
 11
153.887
 21
12.0826
 31
0.0
  0
LINE
  8
0
 62
     0
 10
153.887
 20
12.0826
 30
0.0
 11
153.063
 21
12.0826
 31
0.0
  0
LINE
  8
0
 62
     0
 10
153.063
 20
12.0826
 30
0.0
 11
153.063
 21
9.28384
 31
0.0
  0
LINE
  8
0
 62
     0
 10
153.063
 20
9.28384
 30
0.0
 11
153.887
 21
9.28384
 31
0.0
  0
LINE
  8
0
 62
     0
 10
153.887
 20
9.28384
 30
0.0
 11
153.887
 21
3.01377
 31
0.0
  0
LINE
  8
0
 62
     0
 10
153.887
 20
3.01377
 30
0.0
 11
155.612
 21
3.01377
 31
0.0
  0
LINE
  8
0
 62
     0
 10
155.612
 20
3.01377
 30
0.0
 11
155.612
 21
1.81488
 31
0.0
  0
LINE
  8
0
 62
     0
 10
155.612
 20
1.81488
 30
0.0
 11
158.913
 21
1.81488
 31
0.0
  0
LINE
  8
0
 62
     0
 10
158.913
 20
1.81488
 30
0.0
 11
158.913
 21
3.01377
 31
0.0
  0
LINE
  8
0
 62
     0
 10
158.913
 20
3.01377
 30
0.0
 11
160.638
 21
3.01377
 31
0.0
  0
LINE
  8
0
 62
     0
 10
160.638
 20
3.01377
 30
0.0
 11
160.638
 21
7.48411
 31
0.0
  0
LINE
  8
0
 62
     0
 10
160.638
 20
7.48411
 30
0.0
 11
200.262
 21
7.48411
 31
0.0
  0
LINE
  8
0
 62
     0
 10
200.262
 20
7.48411
 30
0.0
 11
200.262
 21
2.78364
 31
0.0
  0
LINE
  8
0
 62
     0
 10
200.262
 20
2.78364
 30
0.0
 11
214.263
 21
2.78364
 31
0.0
  0
LINE
  8
0
 62
     0
 10
214.263
 20
2.78364
 30
0.0
 11
214.263
 21
7.48411
 31
0.0
  0
LINE
  8
0
 62
     0
 10
214.263
 20
7.48411
 30
0.0
 11
253.887
 21
7.48411
 31
0.0
  0
LINE
  8
0
 62
     0
 10
253.887
 20
7.48411
 30
0.0
 11
253.887
 21
3.01377
 31
0.0
  0
LINE
  8
0
 62
     0
 10
253.887
 20
3.01377
 30
0.0
 11
255.611
 21
3.01377
 31
0.0
  0
LINE
  8
0
 62
     0
 10
255.611
 20
3.01377
 30
0.0
 11
255.611
 21
1.81488
 31
0.0
  0
LINE
  8
0
 62
     0
 10
255.611
 20
1.81488
 30
0.0
 11
258.913
 21
1.81488
 31
0.0
  0
LINE
  8
0
 62
     0
 10
258.913
 20
1.81488
 30
0.0
 11
258.913
 21
3.01377
 31
0.0
  0
LINE
  8
0
 62
     0
 10
258.913
 20
3.01377
 30
0.0
 11
260.638
 21
3.01377
 31
0.0
  0
LINE
  8
0
 62
     0
 10
260.638
 20
3.01377
 30
0.0
 11
260.638
 21
9.28384
 31
0.0
  0
LINE
  8
0
 62
     0
 10
260.638
 20
9.28384
 30
0.0
 11
261.462
 21
9.28384
 31
0.0
  0
LINE
  8
0
 62
     0
 10
261.462
 20
9.28384
 30
0.0
 11
261.462
 21
12.0826
 31
0.0
  0
LINE
  8
0
 62
     0
 10
261.462
 20
12.0826
 30
0.0
 11
260.638
 21
12.0826
 31
0.0
  0
LINE
  8
0
 62
     0
 10
260.638
 20
12.0826
 30
0.0
 11
260.638
 21
15.3142
 31
0.0
  0
LINE
  8
0
 62
     0
 10
260.638
 20
15.3142
 30
0.0
 11
253.887
 21
15.3142
 31
0.0
  0
LINE
  8
0
 62
     0
 10
253.887
 20
15.3142
 30
0.0
 11
253.887
 21
12.0826
 31
0.0
  0
LINE
  8
0
 62
     0
 10
253.887
 20
12.0826
 30
0.0
 11
214.263
 21
12.0826
 31
0.0
  0
LINE
  8
0
 62
     0
 10
214.263
 20
12.0826
 30
0.0
 11
214.263
 21
16.7845
 31
0.0
  0
LINE
  8
0
 62
     0
 10
214.263
 20
16.7845
 30
0.0
 11
200.262
 21
16.7845
 31
0.0
  0
LINE
  8
0
 62
     0
 10
2.61965
 20
16.7845
 30
0.0
 11
16.6192
 21
16.7845
 31
0.0
  0
LINE
  8
0
 62
     0
 10
16.6192
 20
16.7845
 30
0.0
 11
16.6192
 21
2.78364
 31
0.0
  0
LINE
  8
0
 62
     0
 10
16.6192
 20
2.78364
 30
0.0
 11
2.61965
 21
2.78364
 31
0.0
  0
LINE
  8
0
 62
     0
 10
2.61965
 20
2.78364
 30
0.0
 11
2.61965
 21
16.7845
 31
0.0
  0
LINE
  8
0
 62
     0
 10
21.6697
 20
16.7845
 30
0.0
 11
35.669
 21
16.7845
 31
0.0
  0
LINE
  8
0
 62
     0
 10
35.669
 20
16.7845
 30
0.0
 11
35.669
 21
2.78364
 31
0.0
  0
LINE
  8
0
 62
     0
 10
35.669
 20
2.78364
 30
0.0
 11
21.6697
 21
2.78364
 31
0.0
  0
LINE
  8
0
 62
     0
 10
21.6697
 20
2.78364
 30
0.0
 11
21.6697
 21
16.7845
 31
0.0
  0
LINE
  8
0
 62
     0
 10
40.7197
 20
16.7845
 30
0.0
 11
54.719
 21
16.7845
 31
0.0
  0
LINE
  8
0
 62
     0
 10
54.719
 20
16.7845
 30
0.0
 11
54.719
 21
2.78364
 31
0.0
  0
LINE
  8
0
 62
     0
 10
54.719
 20
2.78364
 30
0.0
 11
40.7197
 21
2.78364
 31
0.0
  0
LINE
  8
0
 62
     0
 10
40.7197
 20
2.78364
 30
0.0
 11
40.7197
 21
16.7845
 31
0.0
  0
LINE
  8
0
 62
     0
 10
81.201
 20
16.7845
 30
0.0
 11
95.2003
 21
16.7845
 31
0.0
  0
LINE
  8
0
 62
     0
 10
95.2003
 20
16.7845
 30
0.0
 11
95.2003
 21
2.78364
 31
0.0
  0
LINE
  8
0
 62
     0
 10
95.2003
 20
2.78364
 30
0.0
 11
81.201
 21
2.78364
 31
0.0
  0
LINE
  8
0
 62
     0
 10
81.201
 20
2.78364
 30
0.0
 11
81.201
 21
16.7845
 31
0.0
  0
LINE
  8
0
 62
     0
 10
105.012
 20
16.7845
 30
0.0
 11
119.013
 21
16.7845
 31
0.0
  0
LINE
  8
0
 62
     0
 10
119.013
 20
16.7845
 30
0.0
 11
119.013
 21
2.78364
 31
0.0
  0
LINE
  8
0
 62
     0
 10
119.013
 20
2.78364
 30
0.0
 11
105.012
 21
2.78364
 31
0.0
  0
LINE
  8
0
 62
     0
 10
105.012
 20
2.78364
 30
0.0
 11
105.012
 21
16.7845
 31
0.0
  0
LINE
  8
0
 62
     0
 10
128.826
 20
16.7845
 30
0.0
 11
142.825
 21
16.7845
 31
0.0
  0
LINE
  8
0
 62
     0
 10
142.825
 20
16.7845
 30
0.0
 11
142.825
 21
2.78364
 31
0.0
  0
LINE
  8
0
 62
     0
 10
142.825
 20
2.78364
 30
0.0
 11
128.826
 21
2.78364
 31
0.0
  0
LINE
  8
0
 62
     0
 10
128.826
 20
2.78364
 30
0.0
 11
128.826
 21
16.7845
 31
0.0
  0
LINE
  8
0
 62
     0
 10
269.32
 20
16.7845
 30
0.0
 11
283.319
 21
16.7845
 31
0.0
  0
LINE
  8
0
 62
     0
 10
283.319
 20
16.7845
 30
0.0
 11
283.319
 21
2.78364
 31
0.0
  0
LINE
  8
0
 62
     0
 10
283.319
 20
2.78364
 30
0.0
 11
269.32
 21
2.78364
 31
0.0
  0
LINE
  8
0
 62
     0
 10
269.32
 20
2.78364
 30
0.0
 11
269.32
 21
16.7845
 31
0.0
  0
LINE
  8
0
 62
     0
 10
288.37
 20
16.7845
 30
0.0
 11
302.369
 21
16.7845
 31
0.0
  0
LINE
  8
0
 62
     0
 10
302.369
 20
16.7845
 30
0.0
 11
302.369
 21
2.78364
 31
0.0
  0
LINE
  8
0
 62
     0
 10
302.369
 20
2.78364
 30
0.0
 11
288.37
 21
2.78364
 31
0.0
  0
LINE
  8
0
 62
     0
 10
288.37
 20
2.78364
 30
0.0
 11
288.37
 21
16.7845
 31
0.0
  0
LINE
  8
0
 62
     0
 10
307.42
 20
16.7845
 30
0.0
 11
321.419
 21
16.7845
 31
0.0
  0
LINE
  8
0
 62
     0
 10
321.419
 20
16.7845
 30
0.0
 11
321.419
 21
2.78364
 31
0.0
  0
LINE
  8
0
 62
     0
 10
321.419
 20
2.78364
 30
0.0
 11
307.42
 21
2.78364
 31
0.0
  0
LINE
  8
0
 62
     0
 10
307.42
 20
2.78364
 30
0.0
 11
307.42
 21
16.7845
 31
0.0
  0
LINE
  8
0
 62
     0
 10
326.47
 20
16.7845
 30
0.0
 11
340.469
 21
16.7845
 31
0.0
  0
LINE
  8
0
 62
     0
 10
340.469
 20
16.7845
 30
0.0
 11
340.469
 21
2.78364
 31
0.0
  0
LINE
  8
0
 62
     0
 10
340.469
 20
2.78364
 30
0.0
 11
326.47
 21
2.78364
 31
0.0
  0
LINE
  8
0
 62
     0
 10
326.47
 20
2.78364
 30
0.0
 11
326.47
 21
16.7845
 31
0.0
  0
LINE
  8
0
 62
     0
 10
345.52
 20
16.7845
 30
0.0
 11
359.519
 21
16.7845
 31
0.0
  0
LINE
  8
0
 62
     0
 10
359.519
 20
16.7845
 30
0.0
 11
359.519
 21
2.78364
 31
0.0
  0
LINE
  8
0
 62
     0
 10
359.519
 20
2.78364
 30
0.0
 11
345.52
 21
2.78364
 31
0.0
  0
LINE
  8
0
 62
     0
 10
345.52
 20
2.78364
 30
0.0
 11
345.52
 21
16.7845
 31
0.0
  0
LINE
  8
0
 62
     0
 10
90.726
 20
35.833
 30
0.0
 11
90.726
 21
31.1326
 31
0.0
  0
LINE
  8
0
 62
     0
 10
90.726
 20
31.1326
 30
0.0
 11
89.2006
 21
31.1326
 31
0.0
  0
LINE
  8
0
 62
     0
 10
89.2006
 20
31.1326
 30
0.0
 11
89.2006
 21
34.3628
 31
0.0
  0
LINE
  8
0
 62
     0
 10
89.2006
 20
34.3628
 30
0.0
 11
82.4509
 21
34.3628
 31
0.0
  0
LINE
  8
0
 62
     0
 10
82.4509
 20
34.3628
 30
0.0
 11
82.4509
 21
31.1326
 31
0.0
  0
LINE
  8
0
 62
     0
 10
82.4509
 20
31.1326
 30
0.0
 11
81.6254
 21
31.1326
 31
0.0
  0
LINE
  8
0
 62
     0
 10
81.6254
 20
31.1326
 30
0.0
 11
81.6254
 21
28.3338
 31
0.0
  0
LINE
  8
0
 62
     0
 10
81.6254
 20
28.3338
 30
0.0
 11
82.4509
 21
28.3338
 31
0.0
  0
LINE
  8
0
 62
     0
 10
82.4509
 20
28.3338
 30
0.0
 11
82.4509
 21
22.0638
 31
0.0
  0
LINE
  8
0
 62
     0
 10
82.4509
 20
22.0638
 30
0.0
 11
84.176
 21
22.0638
 31
0.0
  0
LINE
  8
0
 62
     0
 10
84.176
 20
22.0638
 30
0.0
 11
84.176
 21
20.8635
 31
0.0
  0
LINE
  8
0
 62
     0
 10
84.176
 20
20.8635
 30
0.0
 11
87.4751
 21
20.8635
 31
0.0
  0
LINE
  8
0
 62
     0
 10
87.4751
 20
20.8635
 30
0.0
 11
87.4751
 21
22.0638
 31
0.0
  0
LINE
  8
0
 62
     0
 10
87.4751
 20
22.0638
 30
0.0
 11
89.2006
 21
22.0638
 31
0.0
  0
LINE
  8
0
 62
     0
 10
89.2006
 20
22.0638
 30
0.0
 11
89.2006
 21
26.5341
 31
0.0
  0
LINE
  8
0
 62
     0
 10
89.2006
 20
26.5341
 30
0.0
 11
90.726
 21
26.5341
 31
0.0
  0
LINE
  8
0
 62
     0
 10
90.726
 20
26.5341
 30
0.0
 11
90.726
 21
21.8336
 31
0.0
  0
LINE
  8
0
 62
     0
 10
90.726
 20
21.8336
 30
0.0
 11
104.725
 21
21.8336
 31
0.0
  0
LINE
  8
0
 62
     0
 10
104.725
 20
21.8336
 30
0.0
 11
104.725
 21
26.5341
 31
0.0
  0
LINE
  8
0
 62
     0
 10
104.725
 20
26.5341
 30
0.0
 11
106.251
 21
26.5341
 31
0.0
  0
LINE
  8
0
 62
     0
 10
106.251
 20
26.5341
 30
0.0
 11
106.251
 21
22.0638
 31
0.0
  0
LINE
  8
0
 62
     0
 10
106.251
 20
22.0638
 30
0.0
 11
107.975
 21
22.0638
 31
0.0
  0
LINE
  8
0
 62
     0
 10
107.975
 20
22.0638
 30
0.0
 11
107.975
 21
20.8635
 31
0.0
  0
LINE
  8
0
 62
     0
 10
107.975
 20
20.8635
 30
0.0
 11
111.275
 21
20.8635
 31
0.0
  0
LINE
  8
0
 62
     0
 10
111.275
 20
20.8635
 30
0.0
 11
111.275
 21
22.0638
 31
0.0
  0
LINE
  8
0
 62
     0
 10
111.275
 20
22.0638
 30
0.0
 11
113
 21
22.0638
 31
0.0
  0
LINE
  8
0
 62
     0
 10
113
 20
22.0638
 30
0.0
 11
113
 21
28.3338
 31
0.0
  0
LINE
  8
0
 62
     0
 10
113
 20
28.3338
 30
0.0
 11
113.826
 21
28.3338
 31
0.0
  0
LINE
  8
0
 62
     0
 10
113.826
 20
28.3338
 30
0.0
 11
113.826
 21
31.1326
 31
0.0
  0
LINE
  8
0
 62
     0
 10
113.826
 20
31.1326
 30
0.0
 11
113
 21
31.1326
 31
0.0
  0
LINE
  8
0
 62
     0
 10
113
 20
31.1326
 30
0.0
 11
113
 21
34.3628
 31
0.0
  0
LINE
  8
0
 62
     0
 10
113
 20
34.3628
 30
0.0
 11
106.251
 21
34.3628
 31
0.0
  0
LINE
  8
0
 62
     0
 10
106.251
 20
34.3628
 30
0.0
 11
106.251
 21
31.1326
 31
0.0
  0
LINE
  8
0
 62
     0
 10
106.251
 20
31.1326
 30
0.0
 11
104.725
 21
31.1326
 31
0.0
  0
LINE
  8
0
 62
     0
 10
104.725
 20
31.1326
 30
0.0
 11
104.725
 21
35.833
 31
0.0
  0
LINE
  8
0
 62
     0
 10
104.725
 20
35.833
 30
0.0
 11
90.726
 21
35.833
 31
0.0
  0
LINE
  8
0
 62
     0
 10
2.61965
 20
35.833
 30
0.0
 11
16.6192
 21
35.833
 31
0.0
  0
LINE
  8
0
 62
     0
 10
16.6192
 20
35.833
 30
0.0
 11
16.6192
 21
21.8336
 31
0.0
  0
LINE
  8
0
 62
     0
 10
16.6192
 20
21.8336
 30
0.0
 11
2.61965
 21
21.8336
 31
0.0
  0
LINE
  8
0
 62
     0
 10
2.61965
 20
21.8336
 30
0.0
 11
2.61965
 21
35.833
 31
0.0
  0
LINE
  8
0
 62
     0
 10
21.6697
 20
35.833
 30
0.0
 11
35.669
 21
35.833
 31
0.0
  0
LINE
  8
0
 62
     0
 10
35.669
 20
35.833
 30
0.0
 11
35.669
 21
21.8336
 31
0.0
  0
LINE
  8
0
 62
     0
 10
35.669
 20
21.8336
 30
0.0
 11
21.6697
 21
21.8336
 31
0.0
  0
LINE
  8
0
 62
     0
 10
21.6697
 20
21.8336
 30
0.0
 11
21.6697
 21
35.833
 31
0.0
  0
LINE
  8
0
 62
     0
 10
40.7197
 20
35.833
 30
0.0
 11
54.719
 21
35.833
 31
0.0
  0
LINE
  8
0
 62
     0
 10
54.719
 20
35.833
 30
0.0
 11
54.719
 21
21.8336
 31
0.0
  0
LINE
  8
0
 62
     0
 10
54.719
 20
21.8336
 30
0.0
 11
40.7197
 21
21.8336
 31
0.0
  0
LINE
  8
0
 62
     0
 10
40.7197
 20
21.8336
 30
0.0
 11
40.7197
 21
35.833
 31
0.0
  0
LINE
  8
0
 62
     0
 10
121.682
 20
35.833
 30
0.0
 11
135.682
 21
35.833
 31
0.0
  0
LINE
  8
0
 62
     0
 10
135.682
 20
35.833
 30
0.0
 11
135.682
 21
21.8336
 31
0.0
  0
LINE
  8
0
 62
     0
 10
135.682
 20
21.8336
 30
0.0
 11
121.682
 21
21.8336
 31
0.0
  0
LINE
  8
0
 62
     0
 10
121.682
 20
21.8336
 30
0.0
 11
121.682
 21
35.833
 31
0.0
  0
LINE
  8
0
 62
     0
 10
140.732
 20
35.833
 30
0.0
 11
154.732
 21
35.833
 31
0.0
  0
LINE
  8
0
 62
     0
 10
154.732
 20
35.833
 30
0.0
 11
154.732
 21
21.8336
 31
0.0
  0
LINE
  8
0
 62
     0
 10
154.732
 20
21.8336
 30
0.0
 11
140.732
 21
21.8336
 31
0.0
  0
LINE
  8
0
 62
     0
 10
140.732
 20
21.8336
 30
0.0
 11
140.732
 21
35.833
 31
0.0
  0
LINE
  8
0
 62
     0
 10
159.782
 20
35.833
 30
0.0
 11
173.782
 21
35.833
 31
0.0
  0
LINE
  8
0
 62
     0
 10
173.782
 20
35.833
 30
0.0
 11
173.782
 21
21.8336
 31
0.0
  0
LINE
  8
0
 62
     0
 10
173.782
 20
21.8336
 30
0.0
 11
159.782
 21
21.8336
 31
0.0
  0
LINE
  8
0
 62
     0
 10
159.782
 20
21.8336
 30
0.0
 11
159.782
 21
35.833
 31
0.0
  0
LINE
  8
0
 62
     0
 10
178.832
 20
35.833
 30
0.0
 11
192.832
 21
35.833
 31
0.0
  0
LINE
  8
0
 62
     0
 10
192.832
 20
35.833
 30
0.0
 11
192.832
 21
21.8336
 31
0.0
  0
LINE
  8
0
 62
     0
 10
192.832
 20
21.8336
 30
0.0
 11
178.832
 21
21.8336
 31
0.0
  0
LINE
  8
0
 62
     0
 10
178.832
 20
21.8336
 30
0.0
 11
178.832
 21
35.833
 31
0.0
  0
LINE
  8
0
 62
     0
 10
197.882
 20
35.833
 30
0.0
 11
211.882
 21
35.833
 31
0.0
  0
LINE
  8
0
 62
     0
 10
211.882
 20
35.833
 30
0.0
 11
211.882
 21
21.8336
 31
0.0
  0
LINE
  8
0
 62
     0
 10
211.882
 20
21.8336
 30
0.0
 11
197.882
 21
21.8336
 31
0.0
  0
LINE
  8
0
 62
     0
 10
197.882
 20
21.8336
 30
0.0
 11
197.882
 21
35.833
 31
0.0
  0
LINE
  8
0
 62
     0
 10
216.932
 20
35.833
 30
0.0
 11
230.932
 21
35.833
 31
0.0
  0
LINE
  8
0
 62
     0
 10
230.932
 20
35.833
 30
0.0
 11
230.932
 21
21.8336
 31
0.0
  0
LINE
  8
0
 62
     0
 10
230.932
 20
21.8336
 30
0.0
 11
216.932
 21
21.8336
 31
0.0
  0
LINE
  8
0
 62
     0
 10
216.932
 20
21.8336
 30
0.0
 11
216.932
 21
35.833
 31
0.0
  0
LINE
  8
0
 62
     0
 10
235.982
 20
35.833
 30
0.0
 11
249.982
 21
35.833
 31
0.0
  0
LINE
  8
0
 62
     0
 10
249.982
 20
35.833
 30
0.0
 11
249.982
 21
21.8336
 31
0.0
  0
LINE
  8
0
 62
     0
 10
249.982
 20
21.8336
 30
0.0
 11
235.982
 21
21.8336
 31
0.0
  0
LINE
  8
0
 62
     0
 10
235.982
 20
21.8336
 30
0.0
 11
235.982
 21
35.833
 31
0.0
  0
LINE
  8
0
 62
     0
 10
255.032
 20
35.833
 30
0.0
 11
269.032
 21
35.833
 31
0.0
  0
LINE
  8
0
 62
     0
 10
269.032
 20
35.833
 30
0.0
 11
269.032
 21
21.8336
 31
0.0
  0
LINE
  8
0
 62
     0
 10
269.032
 20
21.8336
 30
0.0
 11
255.032
 21
21.8336
 31
0.0
  0
LINE
  8
0
 62
     0
 10
255.032
 20
21.8336
 30
0.0
 11
255.032
 21
35.833
 31
0.0
  0
LINE
  8
0
 62
     0
 10
274.082
 20
35.833
 30
0.0
 11
288.082
 21
35.833
 31
0.0
  0
LINE
  8
0
 62
     0
 10
288.082
 20
35.833
 30
0.0
 11
288.082
 21
21.8336
 31
0.0
  0
LINE
  8
0
 62
     0
 10
288.082
 20
21.8336
 30
0.0
 11
274.082
 21
21.8336
 31
0.0
  0
LINE
  8
0
 62
     0
 10
274.082
 20
21.8336
 30
0.0
 11
274.082
 21
35.833
 31
0.0
  0
LINE
  8
0
 62
     0
 10
293.132
 20
35.833
 30
0.0
 11
307.132
 21
35.833
 31
0.0
  0
LINE
  8
0
 62
     0
 10
307.132
 20
35.833
 30
0.0
 11
307.132
 21
21.8336
 31
0.0
  0
LINE
  8
0
 62
     0
 10
307.132
 20
21.8336
 30
0.0
 11
293.132
 21
21.8336
 31
0.0
  0
LINE
  8
0
 62
     0
 10
293.132
 20
21.8336
 30
0.0
 11
293.132
 21
35.833
 31
0.0
  0
LINE
  8
0
 62
     0
 10
312.182
 20
35.833
 30
0.0
 11
326.182
 21
35.833
 31
0.0
  0
LINE
  8
0
 62
     0
 10
326.182
 20
35.833
 30
0.0
 11
326.182
 21
21.8336
 31
0.0
  0
LINE
  8
0
 62
     0
 10
326.182
 20
21.8336
 30
0.0
 11
312.182
 21
21.8336
 31
0.0
  0
LINE
  8
0
 62
     0
 10
312.182
 20
21.8336
 30
0.0
 11
312.182
 21
35.833
 31
0.0
  0
LINE
  8
0
 62
     0
 10
338.376
 20
35.833
 30
0.0
 11
352.375
 21
35.833
 31
0.0
  0
LINE
  8
0
 62
     0
 10
352.375
 20
35.833
 30
0.0
 11
352.375
 21
21.8336
 31
0.0
  0
LINE
  8
0
 62
     0
 10
352.375
 20
21.8336
 30
0.0
 11
338.376
 21
21.8336
 31
0.0
  0
LINE
  8
0
 62
     0
 10
338.376
 20
21.8336
 30
0.0
 11
338.376
 21
35.833
 31
0.0
  0
LINE
  8
0
 62
     0
 10
333.612
 20
54.8831
 30
0.0
 11
333.612
 21
50.1826
 31
0.0
  0
LINE
  8
0
 62
     0
 10
333.612
 20
50.1826
 30
0.0
 11
332.088
 21
50.1826
 31
0.0
  0
LINE
  8
0
 62
     0
 10
332.088
 20
50.1826
 30
0.0
 11
332.088
 21
53.4127
 31
0.0
  0
LINE
  8
0
 62
     0
 10
332.088
 20
53.4127
 30
0.0
 11
325.337
 21
53.4127
 31
0.0
  0
LINE
  8
0
 62
     0
 10
325.337
 20
53.4127
 30
0.0
 11
325.337
 21
50.1826
 31
0.0
  0
LINE
  8
0
 62
     0
 10
325.337
 20
50.1826
 30
0.0
 11
324.513
 21
50.1826
 31
0.0
  0
LINE
  8
0
 62
     0
 10
324.513
 20
50.1826
 30
0.0
 11
324.513
 21
47.3837
 31
0.0
  0
LINE
  8
0
 62
     0
 10
324.513
 20
47.3837
 30
0.0
 11
325.337
 21
47.3837
 31
0.0
  0
LINE
  8
0
 62
     0
 10
325.337
 20
47.3837
 30
0.0
 11
325.337
 21
41.1138
 31
0.0
  0
LINE
  8
0
 62
     0
 10
325.337
 20
41.1138
 30
0.0
 11
327.062
 21
41.1138
 31
0.0
  0
LINE
  8
0
 62
     0
 10
327.062
 20
41.1138
 30
0.0
 11
327.062
 21
39.9136
 31
0.0
  0
LINE
  8
0
 62
     0
 10
327.062
 20
39.9136
 30
0.0
 11
330.363
 21
39.9136
 31
0.0
  0
LINE
  8
0
 62
     0
 10
330.363
 20
39.9136
 30
0.0
 11
330.363
 21
41.1138
 31
0.0
  0
LINE
  8
0
 62
     0
 10
330.363
 20
41.1138
 30
0.0
 11
332.088
 21
41.1138
 31
0.0
  0
LINE
  8
0
 62
     0
 10
332.088
 20
41.1138
 30
0.0
 11
332.088
 21
45.5828
 31
0.0
  0
LINE
  8
0
 62
     0
 10
332.088
 20
45.5828
 30
0.0
 11
333.612
 21
45.5828
 31
0.0
  0
LINE
  8
0
 62
     0
 10
333.612
 20
45.5828
 30
0.0
 11
333.612
 21
40.8838
 31
0.0
  0
LINE
  8
0
 62
     0
 10
333.612
 20
40.8838
 30
0.0
 11
347.613
 21
40.8838
 31
0.0
  0
LINE
  8
0
 62
     0
 10
347.613
 20
40.8838
 30
0.0
 11
347.613
 21
45.5828
 31
0.0
  0
LINE
  8
0
 62
     0
 10
347.613
 20
45.5828
 30
0.0
 11
349.137
 21
45.5828
 31
0.0
  0
LINE
  8
0
 62
     0
 10
349.137
 20
45.5828
 30
0.0
 11
349.137
 21
41.1138
 31
0.0
  0
LINE
  8
0
 62
     0
 10
349.137
 20
41.1138
 30
0.0
 11
350.862
 21
41.1138
 31
0.0
  0
LINE
  8
0
 62
     0
 10
350.862
 20
41.1138
 30
0.0
 11
350.862
 21
39.9136
 31
0.0
  0
LINE
  8
0
 62
     0
 10
350.862
 20
39.9136
 30
0.0
 11
354.164
 21
39.9136
 31
0.0
  0
LINE
  8
0
 62
     0
 10
354.164
 20
39.9136
 30
0.0
 11
354.164
 21
41.1138
 31
0.0
  0
LINE
  8
0
 62
     0
 10
354.164
 20
41.1138
 30
0.0
 11
355.889
 21
41.1138
 31
0.0
  0
LINE
  8
0
 62
     0
 10
355.889
 20
41.1138
 30
0.0
 11
355.889
 21
47.3837
 31
0.0
  0
LINE
  8
0
 62
     0
 10
355.889
 20
47.3837
 30
0.0
 11
356.711
 21
47.3837
 31
0.0
  0
LINE
  8
0
 62
     0
 10
356.711
 20
47.3837
 30
0.0
 11
356.711
 21
50.1826
 31
0.0
  0
LINE
  8
0
 62
     0
 10
356.711
 20
50.1826
 30
0.0
 11
355.889
 21
50.1826
 31
0.0
  0
LINE
  8
0
 62
     0
 10
355.889
 20
50.1826
 30
0.0
 11
355.889
 21
53.4127
 31
0.0
  0
LINE
  8
0
 62
     0
 10
355.889
 20
53.4127
 30
0.0
 11
349.137
 21
53.4127
 31
0.0
  0
LINE
  8
0
 62
     0
 10
349.137
 20
53.4127
 30
0.0
 11
349.137
 21
50.1826
 31
0.0
  0
LINE
  8
0
 62
     0
 10
349.137
 20
50.1826
 30
0.0
 11
347.613
 21
50.1826
 31
0.0
  0
LINE
  8
0
 62
     0
 10
347.613
 20
50.1826
 30
0.0
 11
347.613
 21
54.8831
 31
0.0
  0
LINE
  8
0
 62
     0
 10
347.613
 20
54.8831
 30
0.0
 11
333.612
 21
54.8831
 31
0.0
  0
LINE
  8
0
 62
     0
 10
2.61965
 20
54.8831
 30
0.0
 11
16.6192
 21
54.8831
 31
0.0
  0
LINE
  8
0
 62
     0
 10
16.6192
 20
54.8831
 30
0.0
 11
16.6192
 21
40.8838
 31
0.0
  0
LINE
  8
0
 62
     0
 10
16.6192
 20
40.8838
 30
0.0
 11
2.61965
 21
40.8838
 31
0.0
  0
LINE
  8
0
 62
     0
 10
2.61965
 20
40.8838
 30
0.0
 11
2.61965
 21
54.8831
 31
0.0
  0
LINE
  8
0
 62
     0
 10
40.7197
 20
54.8831
 30
0.0
 11
54.719
 21
54.8831
 31
0.0
  0
LINE
  8
0
 62
     0
 10
54.719
 20
54.8831
 30
0.0
 11
54.719
 21
40.8838
 31
0.0
  0
LINE
  8
0
 62
     0
 10
54.719
 20
40.8838
 30
0.0
 11
40.7197
 21
40.8838
 31
0.0
  0
LINE
  8
0
 62
     0
 10
40.7197
 20
40.8838
 30
0.0
 11
40.7197
 21
54.8831
 31
0.0
  0
LINE
  8
0
 62
     0
 10
85.9621
 20
54.8831
 30
0.0
 11
99.9628
 21
54.8831
 31
0.0
  0
LINE
  8
0
 62
     0
 10
99.9628
 20
54.8831
 30
0.0
 11
99.9628
 21
40.8838
 31
0.0
  0
LINE
  8
0
 62
     0
 10
99.9628
 20
40.8838
 30
0.0
 11
85.9621
 21
40.8838
 31
0.0
  0
LINE
  8
0
 62
     0
 10
85.9621
 20
40.8838
 30
0.0
 11
85.9621
 21
54.8831
 31
0.0
  0
LINE
  8
0
 62
     0
 10
112.157
 20
54.8831
 30
0.0
 11
126.157
 21
54.8831
 31
0.0
  0
LINE
  8
0
 62
     0
 10
126.157
 20
54.8831
 30
0.0
 11
126.157
 21
40.8838
 31
0.0
  0
LINE
  8
0
 62
     0
 10
126.157
 20
40.8838
 30
0.0
 11
112.157
 21
40.8838
 31
0.0
  0
LINE
  8
0
 62
     0
 10
112.157
 20
40.8838
 30
0.0
 11
112.157
 21
54.8831
 31
0.0
  0
LINE
  8
0
 62
     0
 10
131.207
 20
54.8831
 30
0.0
 11
145.207
 21
54.8831
 31
0.0
  0
LINE
  8
0
 62
     0
 10
145.207
 20
54.8831
 30
0.0
 11
145.207
 21
40.8838
 31
0.0
  0
LINE
  8
0
 62
     0
 10
145.207
 20
40.8838
 30
0.0
 11
131.207
 21
40.8838
 31
0.0
  0
LINE
  8
0
 62
     0
 10
131.207
 20
40.8838
 30
0.0
 11
131.207
 21
54.8831
 31
0.0
  0
LINE
  8
0
 62
     0
 10
150.257
 20
54.8831
 30
0.0
 11
164.257
 21
54.8831
 31
0.0
  0
LINE
  8
0
 62
     0
 10
164.257
 20
54.8831
 30
0.0
 11
164.257
 21
40.8838
 31
0.0
  0
LINE
  8
0
 62
     0
 10
164.257
 20
40.8838
 30
0.0
 11
150.257
 21
40.8838
 31
0.0
  0
LINE
  8
0
 62
     0
 10
150.257
 20
40.8838
 30
0.0
 11
150.257
 21
54.8831
 31
0.0
  0
LINE
  8
0
 62
     0
 10
169.307
 20
54.8831
 30
0.0
 11
183.307
 21
54.8831
 31
0.0
  0
LINE
  8
0
 62
     0
 10
183.307
 20
54.8831
 30
0.0
 11
183.307
 21
40.8838
 31
0.0
  0
LINE
  8
0
 62
     0
 10
183.307
 20
40.8838
 30
0.0
 11
169.307
 21
40.8838
 31
0.0
  0
LINE
  8
0
 62
     0
 10
169.307
 20
40.8838
 30
0.0
 11
169.307
 21
54.8831
 31
0.0
  0
LINE
  8
0
 62
     0
 10
188.357
 20
54.8831
 30
0.0
 11
202.357
 21
54.8831
 31
0.0
  0
LINE
  8
0
 62
     0
 10
202.357
 20
54.8831
 30
0.0
 11
202.357
 21
40.8838
 31
0.0
  0
LINE
  8
0
 62
     0
 10
202.357
 20
40.8838
 30
0.0
 11
188.357
 21
40.8838
 31
0.0
  0
LINE
  8
0
 62
     0
 10
188.357
 20
40.8838
 30
0.0
 11
188.357
 21
54.8831
 31
0.0
  0
LINE
  8
0
 62
     0
 10
207.407
 20
54.8831
 30
0.0
 11
221.407
 21
54.8831
 31
0.0
  0
LINE
  8
0
 62
     0
 10
221.407
 20
54.8831
 30
0.0
 11
221.407
 21
40.8838
 31
0.0
  0
LINE
  8
0
 62
     0
 10
221.407
 20
40.8838
 30
0.0
 11
207.407
 21
40.8838
 31
0.0
  0
LINE
  8
0
 62
     0
 10
207.407
 20
40.8838
 30
0.0
 11
207.407
 21
54.8831
 31
0.0
  0
LINE
  8
0
 62
     0
 10
226.457
 20
54.8831
 30
0.0
 11
240.457
 21
54.8831
 31
0.0
  0
LINE
  8
0
 62
     0
 10
240.457
 20
54.8831
 30
0.0
 11
240.457
 21
40.8838
 31
0.0
  0
LINE
  8
0
 62
     0
 10
240.457
 20
40.8838
 30
0.0
 11
226.457
 21
40.8838
 31
0.0
  0
LINE
  8
0
 62
     0
 10
226.457
 20
40.8838
 30
0.0
 11
226.457
 21
54.8831
 31
0.0
  0
LINE
  8
0
 62
     0
 10
245.507
 20
54.8831
 30
0.0
 11
259.507
 21
54.8831
 31
0.0
  0
LINE
  8
0
 62
     0
 10
259.507
 20
54.8831
 30
0.0
 11
259.507
 21
40.8838
 31
0.0
  0
LINE
  8
0
 62
     0
 10
259.507
 20
40.8838
 30
0.0
 11
245.507
 21
40.8838
 31
0.0
  0
LINE
  8
0
 62
     0
 10
245.507
 20
40.8838
 30
0.0
 11
245.507
 21
54.8831
 31
0.0
  0
LINE
  8
0
 62
     0
 10
264.557
 20
54.8831
 30
0.0
 11
278.557
 21
54.8831
 31
0.0
  0
LINE
  8
0
 62
     0
 10
278.557
 20
54.8831
 30
0.0
 11
278.557
 21
40.8838
 31
0.0
  0
LINE
  8
0
 62
     0
 10
278.557
 20
40.8838
 30
0.0
 11
264.557
 21
40.8838
 31
0.0
  0
LINE
  8
0
 62
     0
 10
264.557
 20
40.8838
 30
0.0
 11
264.557
 21
54.8831
 31
0.0
  0
LINE
  8
0
 62
     0
 10
283.607
 20
54.8831
 30
0.0
 11
297.607
 21
54.8831
 31
0.0
  0
LINE
  8
0
 62
     0
 10
297.607
 20
54.8831
 30
0.0
 11
297.607
 21
40.8838
 31
0.0
  0
LINE
  8
0
 62
     0
 10
297.607
 20
40.8838
 30
0.0
 11
283.607
 21
40.8838
 31
0.0
  0
LINE
  8
0
 62
     0
 10
283.607
 20
40.8838
 30
0.0
 11
283.607
 21
54.8831
 31
0.0
  0
LINE
  8
0
 62
     0
 10
302.657
 20
54.8831
 30
0.0
 11
316.657
 21
54.8831
 31
0.0
  0
LINE
  8
0
 62
     0
 10
316.657
 20
54.8831
 30
0.0
 11
316.657
 21
40.8838
 31
0.0
  0
LINE
  8
0
 62
     0
 10
316.657
 20
40.8838
 30
0.0
 11
302.657
 21
40.8838
 31
0.0
  0
LINE
  8
0
 62
     0
 10
302.657
 20
40.8838
 30
0.0
 11
302.657
 21
54.8831
 31
0.0
  0
LINE
  8
0
 62
     0
 10
83.5822
 20
73.9331
 30
0.0
 11
97.5815
 21
73.9331
 31
0.0
  0
LINE
  8
0
 62
     0
 10
97.5815
 20
73.9331
 30
0.0
 11
97.5815
 21
59.9338
 31
0.0
  0
LINE
  8
0
 62
     0
 10
97.5815
 20
59.9338
 30
0.0
 11
83.5822
 21
59.9338
 31
0.0
  0
LINE
  8
0
 62
     0
 10
83.5822
 20
59.9338
 30
0.0
 11
83.5822
 21
73.9331
 31
0.0
  0
LINE
  8
0
 62
     0
 10
107.395
 20
73.9331
 30
0.0
 11
121.394
 21
73.9331
 31
0.0
  0
LINE
  8
0
 62
     0
 10
121.394
 20
73.9331
 30
0.0
 11
121.394
 21
59.9338
 31
0.0
  0
LINE
  8
0
 62
     0
 10
121.394
 20
59.9338
 30
0.0
 11
107.395
 21
59.9338
 31
0.0
  0
LINE
  8
0
 62
     0
 10
107.395
 20
59.9338
 30
0.0
 11
107.395
 21
73.9331
 31
0.0
  0
LINE
  8
0
 62
     0
 10
126.445
 20
73.9331
 30
0.0
 11
140.444
 21
73.9331
 31
0.0
  0
LINE
  8
0
 62
     0
 10
140.444
 20
73.9331
 30
0.0
 11
140.444
 21
59.9338
 31
0.0
  0
LINE
  8
0
 62
     0
 10
140.444
 20
59.9338
 30
0.0
 11
126.445
 21
59.9338
 31
0.0
  0
LINE
  8
0
 62
     0
 10
126.445
 20
59.9338
 30
0.0
 11
126.445
 21
73.9331
 31
0.0
  0
LINE
  8
0
 62
     0
 10
145.495
 20
73.9331
 30
0.0
 11
159.494
 21
73.9331
 31
0.0
  0
LINE
  8
0
 62
     0
 10
159.494
 20
73.9331
 30
0.0
 11
159.494
 21
59.9338
 31
0.0
  0
LINE
  8
0
 62
     0
 10
159.494
 20
59.9338
 30
0.0
 11
145.495
 21
59.9338
 31
0.0
  0
LINE
  8
0
 62
     0
 10
145.495
 20
59.9338
 30
0.0
 11
145.495
 21
73.9331
 31
0.0
  0
LINE
  8
0
 62
     0
 10
164.545
 20
73.9331
 30
0.0
 11
178.544
 21
73.9331
 31
0.0
  0
LINE
  8
0
 62
     0
 10
178.544
 20
73.9331
 30
0.0
 11
178.544
 21
59.9338
 31
0.0
  0
LINE
  8
0
 62
     0
 10
178.544
 20
59.9338
 30
0.0
 11
164.545
 21
59.9338
 31
0.0
  0
LINE
  8
0
 62
     0
 10
164.545
 20
59.9338
 30
0.0
 11
164.545
 21
73.9331
 31
0.0
  0
LINE
  8
0
 62
     0
 10
183.595
 20
73.9331
 30
0.0
 11
197.594
 21
73.9331
 31
0.0
  0
LINE
  8
0
 62
     0
 10
197.594
 20
73.9331
 30
0.0
 11
197.594
 21
59.9338
 31
0.0
  0
LINE
  8
0
 62
     0
 10
197.594
 20
59.9338
 30
0.0
 11
183.595
 21
59.9338
 31
0.0
  0
LINE
  8
0
 62
     0
 10
183.595
 20
59.9338
 30
0.0
 11
183.595
 21
73.9331
 31
0.0
  0
LINE
  8
0
 62
     0
 10
202.645
 20
73.9331
 30
0.0
 11
216.644
 21
73.9331
 31
0.0
  0
LINE
  8
0
 62
     0
 10
216.644
 20
73.9331
 30
0.0
 11
216.644
 21
59.9338
 31
0.0
  0
LINE
  8
0
 62
     0
 10
216.644
 20
59.9338
 30
0.0
 11
202.645
 21
59.9338
 31
0.0
  0
LINE
  8
0
 62
     0
 10
202.645
 20
59.9338
 30
0.0
 11
202.645
 21
73.9331
 31
0.0
  0
LINE
  8
0
 62
     0
 10
221.695
 20
73.9331
 30
0.0
 11
235.694
 21
73.9331
 31
0.0
  0
LINE
  8
0
 62
     0
 10
235.694
 20
73.9331
 30
0.0
 11
235.694
 21
59.9338
 31
0.0
  0
LINE
  8
0
 62
     0
 10
235.694
 20
59.9338
 30
0.0
 11
221.695
 21
59.9338
 31
0.0
  0
LINE
  8
0
 62
     0
 10
221.695
 20
59.9338
 30
0.0
 11
221.695
 21
73.9331
 31
0.0
  0
LINE
  8
0
 62
     0
 10
240.745
 20
73.9331
 30
0.0
 11
254.744
 21
73.9331
 31
0.0
  0
LINE
  8
0
 62
     0
 10
254.744
 20
73.9331
 30
0.0
 11
254.744
 21
59.9338
 31
0.0
  0
LINE
  8
0
 62
     0
 10
254.744
 20
59.9338
 30
0.0
 11
240.745
 21
59.9338
 31
0.0
  0
LINE
  8
0
 62
     0
 10
240.745
 20
59.9338
 30
0.0
 11
240.745
 21
73.9331
 31
0.0
  0
LINE
  8
0
 62
     0
 10
259.795
 20
73.9331
 30
0.0
 11
273.794
 21
73.9331
 31
0.0
  0
LINE
  8
0
 62
     0
 10
273.794
 20
73.9331
 30
0.0
 11
273.794
 21
59.9338
 31
0.0
  0
LINE
  8
0
 62
     0
 10
273.794
 20
59.9338
 30
0.0
 11
259.795
 21
59.9338
 31
0.0
  0
LINE
  8
0
 62
     0
 10
259.795
 20
59.9338
 30
0.0
 11
259.795
 21
73.9331
 31
0.0
  0
LINE
  8
0
 62
     0
 10
278.845
 20
73.9331
 30
0.0
 11
292.844
 21
73.9331
 31
0.0
  0
LINE
  8
0
 62
     0
 10
292.844
 20
73.9331
 30
0.0
 11
292.844
 21
59.9338
 31
0.0
  0
LINE
  8
0
 62
     0
 10
292.844
 20
59.9338
 30
0.0
 11
278.845
 21
59.9338
 31
0.0
  0
LINE
  8
0
 62
     0
 10
278.845
 20
59.9338
 30
0.0
 11
278.845
 21
73.9331
 31
0.0
  0
LINE
  8
0
 62
     0
 10
297.895
 20
73.9331
 30
0.0
 11
311.894
 21
73.9331
 31
0.0
  0
LINE
  8
0
 62
     0
 10
311.894
 20
73.9331
 30
0.0
 11
311.894
 21
59.9338
 31
0.0
  0
LINE
  8
0
 62
     0
 10
311.894
 20
59.9338
 30
0.0
 11
297.895
 21
59.9338
 31
0.0
  0
LINE
  8
0
 62
     0
 10
297.895
 20
59.9338
 30
0.0
 11
297.895
 21
73.9331
 31
0.0
  0
LINE
  8
0
 62
     0
 10
316.945
 20
73.9331
 30
0.0
 11
330.944
 21
73.9331
 31
0.0
  0
LINE
  8
0
 62
     0
 10
330.944
 20
73.9331
 30
0.0
 11
330.944
 21
59.9338
 31
0.0
  0
LINE
  8
0
 62
     0
 10
330.944
 20
59.9338
 30
0.0
 11
316.945
 21
59.9338
 31
0.0
  0
LINE
  8
0
 62
     0
 10
316.945
 20
59.9338
 30
0.0
 11
316.945
 21
73.9331
 31
0.0
  0
LINE
  8
0
 62
     0
 10
340.757
 20
73.9331
 30
0.0
 11
354.757
 21
73.9331
 31
0.0
  0
LINE
  8
0
 62
     0
 10
354.757
 20
73.9331
 30
0.0
 11
354.757
 21
59.9338
 31
0.0
  0
LINE
  8
0
 62
     0
 10
354.757
 20
59.9338
 30
0.0
 11
340.757
 21
59.9338
 31
0.0
  0
LINE
  8
0
 62
     0
 10
340.757
 20
59.9338
 30
0.0
 11
340.757
 21
73.9331
 31
0.0
  0
LINE
  8
0
 62
     0
 10
335.995
 20
92.9831
 30
0.0
 11
335.995
 21
88.2826
 31
0.0
  0
LINE
  8
0
 62
     0
 10
335.995
 20
88.2826
 30
0.0
 11
334.469
 21
88.2826
 31
0.0
  0
LINE
  8
0
 62
     0
 10
334.469
 20
88.2826
 30
0.0
 11
334.469
 21
91.5127
 31
0.0
  0
LINE
  8
0
 62
     0
 10
334.469
 20
91.5127
 30
0.0
 11
327.72
 21
91.5127
 31
0.0
  0
LINE
  8
0
 62
     0
 10
327.72
 20
91.5127
 30
0.0
 11
327.72
 21
88.2826
 31
0.0
  0
LINE
  8
0
 62
     0
 10
327.72
 20
88.2826
 30
0.0
 11
326.894
 21
88.2826
 31
0.0
  0
LINE
  8
0
 62
     0
 10
326.894
 20
88.2826
 30
0.0
 11
326.894
 21
85.4837
 31
0.0
  0
LINE
  8
0
 62
     0
 10
326.894
 20
85.4837
 30
0.0
 11
327.72
 21
85.4837
 31
0.0
  0
LINE
  8
0
 62
     0
 10
327.72
 20
85.4837
 30
0.0
 11
327.72
 21
79.2138
 31
0.0
  0
LINE
  8
0
 62
     0
 10
327.72
 20
79.2138
 30
0.0
 11
329.445
 21
79.2138
 31
0.0
  0
LINE
  8
0
 62
     0
 10
329.445
 20
79.2138
 30
0.0
 11
329.445
 21
78.0136
 31
0.0
  0
LINE
  8
0
 62
     0
 10
329.445
 20
78.0136
 30
0.0
 11
332.744
 21
78.0136
 31
0.0
  0
LINE
  8
0
 62
     0
 10
332.744
 20
78.0136
 30
0.0
 11
332.744
 21
79.2138
 31
0.0
  0
LINE
  8
0
 62
     0
 10
332.744
 20
79.2138
 30
0.0
 11
334.469
 21
79.2138
 31
0.0
  0
LINE
  8
0
 62
     0
 10
334.469
 20
79.2138
 30
0.0
 11
334.469
 21
83.6828
 31
0.0
  0
LINE
  8
0
 62
     0
 10
334.469
 20
83.6828
 30
0.0
 11
335.995
 21
83.6828
 31
0.0
  0
LINE
  8
0
 62
     0
 10
335.995
 20
83.6828
 30
0.0
 11
335.995
 21
78.9838
 31
0.0
  0
LINE
  8
0
 62
     0
 10
335.995
 20
78.9838
 30
0.0
 11
349.994
 21
78.9838
 31
0.0
  0
LINE
  8
0
 62
     0
 10
349.994
 20
78.9838
 30
0.0
 11
349.994
 21
83.6828
 31
0.0
  0
LINE
  8
0
 62
     0
 10
349.994
 20
83.6828
 30
0.0
 11
351.52
 21
83.6828
 31
0.0
  0
LINE
  8
0
 62
     0
 10
351.52
 20
83.6828
 30
0.0
 11
351.52
 21
79.2138
 31
0.0
  0
LINE
  8
0
 62
     0
 10
351.52
 20
79.2138
 30
0.0
 11
353.243
 21
79.2138
 31
0.0
  0
LINE
  8
0
 62
     0
 10
353.243
 20
79.2138
 30
0.0
 11
353.243
 21
78.0136
 31
0.0
  0
LINE
  8
0
 62
     0
 10
353.243
 20
78.0136
 30
0.0
 11
356.545
 21
78.0136
 31
0.0
  0
LINE
  8
0
 62
     0
 10
356.545
 20
78.0136
 30
0.0
 11
356.545
 21
79.2138
 31
0.0
  0
LINE
  8
0
 62
     0
 10
356.545
 20
79.2138
 30
0.0
 11
358.271
 21
79.2138
 31
0.0
  0
LINE
  8
0
 62
     0
 10
358.271
 20
79.2138
 30
0.0
 11
358.271
 21
85.4837
 31
0.0
  0
LINE
  8
0
 62
     0
 10
358.271
 20
85.4837
 30
0.0
 11
359.096
 21
85.4837
 31
0.0
  0
LINE
  8
0
 62
     0
 10
359.096
 20
85.4837
 30
0.0
 11
359.096
 21
88.2826
 31
0.0
  0
LINE
  8
0
 62
     0
 10
359.096
 20
88.2826
 30
0.0
 11
358.271
 21
88.2826
 31
0.0
  0
LINE
  8
0
 62
     0
 10
358.271
 20
88.2826
 30
0.0
 11
358.271
 21
91.5127
 31
0.0
  0
LINE
  8
0
 62
     0
 10
358.271
 20
91.5127
 30
0.0
 11
351.52
 21
91.5127
 31
0.0
  0
LINE
  8
0
 62
     0
 10
351.52
 20
91.5127
 30
0.0
 11
351.52
 21
88.2826
 31
0.0
  0
LINE
  8
0
 62
     0
 10
351.52
 20
88.2826
 30
0.0
 11
349.994
 21
88.2826
 31
0.0
  0
LINE
  8
0
 62
     0
 10
349.994
 20
88.2826
 30
0.0
 11
349.994
 21
92.9831
 31
0.0
  0
LINE
  8
0
 62
     0
 10
349.994
 20
92.9831
 30
0.0
 11
335.995
 21
92.9831
 31
0.0
  0
LINE
  8
0
 62
     0
 10
78.8197
 20
92.9831
 30
0.0
 11
92.819
 21
92.9831
 31
0.0
  0
LINE
  8
0
 62
     0
 10
92.819
 20
92.9831
 30
0.0
 11
92.819
 21
78.9838
 31
0.0
  0
LINE
  8
0
 62
     0
 10
92.819
 20
78.9838
 30
0.0
 11
78.8197
 21
78.9838
 31
0.0
  0
LINE
  8
0
 62
     0
 10
78.8197
 20
78.9838
 30
0.0
 11
78.8197
 21
92.9831
 31
0.0
  0
LINE
  8
0
 62
     0
 10
97.8697
 20
92.9831
 30
0.0
 11
111.869
 21
92.9831
 31
0.0
  0
LINE
  8
0
 62
     0
 10
111.869
 20
92.9831
 30
0.0
 11
111.869
 21
78.9838
 31
0.0
  0
LINE
  8
0
 62
     0
 10
111.869
 20
78.9838
 30
0.0
 11
97.8697
 21
78.9838
 31
0.0
  0
LINE
  8
0
 62
     0
 10
97.8697
 20
78.9838
 30
0.0
 11
97.8697
 21
92.9831
 31
0.0
  0
LINE
  8
0
 62
     0
 10
116.92
 20
92.9831
 30
0.0
 11
130.919
 21
92.9831
 31
0.0
  0
LINE
  8
0
 62
     0
 10
130.919
 20
92.9831
 30
0.0
 11
130.919
 21
78.9838
 31
0.0
  0
LINE
  8
0
 62
     0
 10
130.919
 20
78.9838
 30
0.0
 11
116.92
 21
78.9838
 31
0.0
  0
LINE
  8
0
 62
     0
 10
116.92
 20
78.9838
 30
0.0
 11
116.92
 21
92.9831
 31
0.0
  0
LINE
  8
0
 62
     0
 10
135.97
 20
92.9831
 30
0.0
 11
149.969
 21
92.9831
 31
0.0
  0
LINE
  8
0
 62
     0
 10
149.969
 20
92.9831
 30
0.0
 11
149.969
 21
78.9838
 31
0.0
  0
LINE
  8
0
 62
     0
 10
149.969
 20
78.9838
 30
0.0
 11
135.97
 21
78.9838
 31
0.0
  0
LINE
  8
0
 62
     0
 10
135.97
 20
78.9838
 30
0.0
 11
135.97
 21
92.9831
 31
0.0
  0
LINE
  8
0
 62
     0
 10
155.02
 20
92.9831
 30
0.0
 11
169.019
 21
92.9831
 31
0.0
  0
LINE
  8
0
 62
     0
 10
169.019
 20
92.9831
 30
0.0
 11
169.019
 21
78.9838
 31
0.0
  0
LINE
  8
0
 62
     0
 10
169.019
 20
78.9838
 30
0.0
 11
155.02
 21
78.9838
 31
0.0
  0
LINE
  8
0
 62
     0
 10
155.02
 20
78.9838
 30
0.0
 11
155.02
 21
92.9831
 31
0.0
  0
LINE
  8
0
 62
     0
 10
174.07
 20
92.9831
 30
0.0
 11
188.069
 21
92.9831
 31
0.0
  0
LINE
  8
0
 62
     0
 10
188.069
 20
92.9831
 30
0.0
 11
188.069
 21
78.9838
 31
0.0
  0
LINE
  8
0
 62
     0
 10
188.069
 20
78.9838
 30
0.0
 11
174.07
 21
78.9838
 31
0.0
  0
LINE
  8
0
 62
     0
 10
174.07
 20
78.9838
 30
0.0
 11
174.07
 21
92.9831
 31
0.0
  0
LINE
  8
0
 62
     0
 10
193.12
 20
92.9831
 30
0.0
 11
207.119
 21
92.9831
 31
0.0
  0
LINE
  8
0
 62
     0
 10
207.119
 20
92.9831
 30
0.0
 11
207.119
 21
78.9838
 31
0.0
  0
LINE
  8
0
 62
     0
 10
207.119
 20
78.9838
 30
0.0
 11
193.12
 21
78.9838
 31
0.0
  0
LINE
  8
0
 62
     0
 10
193.12
 20
78.9838
 30
0.0
 11
193.12
 21
92.9831
 31
0.0
  0
LINE
  8
0
 62
     0
 10
212.17
 20
92.9831
 30
0.0
 11
226.169
 21
92.9831
 31
0.0
  0
LINE
  8
0
 62
     0
 10
226.169
 20
92.9831
 30
0.0
 11
226.169
 21
78.9838
 31
0.0
  0
LINE
  8
0
 62
     0
 10
226.169
 20
78.9838
 30
0.0
 11
212.17
 21
78.9838
 31
0.0
  0
LINE
  8
0
 62
     0
 10
212.17
 20
78.9838
 30
0.0
 11
212.17
 21
92.9831
 31
0.0
  0
LINE
  8
0
 62
     0
 10
231.22
 20
92.9831
 30
0.0
 11
245.219
 21
92.9831
 31
0.0
  0
LINE
  8
0
 62
     0
 10
245.219
 20
92.9831
 30
0.0
 11
245.219
 21
78.9838
 31
0.0
  0
LINE
  8
0
 62
     0
 10
245.219
 20
78.9838
 30
0.0
 11
231.22
 21
78.9838
 31
0.0
  0
LINE
  8
0
 62
     0
 10
231.22
 20
78.9838
 30
0.0
 11
231.22
 21
92.9831
 31
0.0
  0
LINE
  8
0
 62
     0
 10
250.27
 20
92.9831
 30
0.0
 11
264.269
 21
92.9831
 31
0.0
  0
LINE
  8
0
 62
     0
 10
264.269
 20
92.9831
 30
0.0
 11
264.269
 21
78.9838
 31
0.0
  0
LINE
  8
0
 62
     0
 10
264.269
 20
78.9838
 30
0.0
 11
250.27
 21
78.9838
 31
0.0
  0
LINE
  8
0
 62
     0
 10
250.27
 20
78.9838
 30
0.0
 11
250.27
 21
92.9831
 31
0.0
  0
LINE
  8
0
 62
     0
 10
269.32
 20
92.9831
 30
0.0
 11
283.319
 21
92.9831
 31
0.0
  0
LINE
  8
0
 62
     0
 10
283.319
 20
92.9831
 30
0.0
 11
283.319
 21
78.9838
 31
0.0
  0
LINE
  8
0
 62
     0
 10
283.319
 20
78.9838
 30
0.0
 11
269.32
 21
78.9838
 31
0.0
  0
LINE
  8
0
 62
     0
 10
269.32
 20
78.9838
 30
0.0
 11
269.32
 21
92.9831
 31
0.0
  0
LINE
  8
0
 62
     0
 10
288.37
 20
92.9831
 30
0.0
 11
302.369
 21
92.9831
 31
0.0
  0
LINE
  8
0
 62
     0
 10
302.369
 20
92.9831
 30
0.0
 11
302.369
 21
78.9838
 31
0.0
  0
LINE
  8
0
 62
     0
 10
302.369
 20
78.9838
 30
0.0
 11
288.37
 21
78.9838
 31
0.0
  0
LINE
  8
0
 62
     0
 10
288.37
 20
78.9838
 30
0.0
 11
288.37
 21
92.9831
 31
0.0
  0
LINE
  8
0
 62
     0
 10
307.42
 20
92.9831
 30
0.0
 11
321.419
 21
92.9831
 31
0.0
  0
LINE
  8
0
 62
     0
 10
321.419
 20
92.9831
 30
0.0
 11
321.419
 21
78.9838
 31
0.0
  0
LINE
  8
0
 62
     0
 10
321.419
 20
78.9838
 30
0.0
 11
307.42
 21
78.9838
 31
0.0
  0
LINE
  8
0
 62
     0
 10
307.42
 20
78.9838
 30
0.0
 11
307.42
 21
92.9831
 31
0.0
  0
LINE
  8
0
 62
     0
 10
78.8197
 20
112.033
 30
0.0
 11
92.819
 21
112.033
 31
0.0
  0
LINE
  8
0
 62
     0
 10
92.819
 20
112.033
 30
0.0
 11
92.819
 21
98.0338
 31
0.0
  0
LINE
  8
0
 62
     0
 10
92.819
 20
98.0338
 30
0.0
 11
78.8197
 21
98.0338
 31
0.0
  0
LINE
  8
0
 62
     0
 10
78.8197
 20
98.0338
 30
0.0
 11
78.8197
 21
112.033
 31
0.0
  0
LINE
  8
0
 62
     0
 10
97.8697
 20
112.033
 30
0.0
 11
111.869
 21
112.033
 31
0.0
  0
LINE
  8
0
 62
     0
 10
111.869
 20
112.033
 30
0.0
 11
111.869
 21
98.0338
 31
0.0
  0
LINE
  8
0
 62
     0
 10
111.869
 20
98.0338
 30
0.0
 11
97.8697
 21
98.0338
 31
0.0
  0
LINE
  8
0
 62
     0
 10
97.8697
 20
98.0338
 30
0.0
 11
97.8697
 21
112.033
 31
0.0
  0
LINE
  8
0
 62
     0
 10
116.92
 20
112.033
 30
0.0
 11
130.919
 21
112.033
 31
0.0
  0
LINE
  8
0
 62
     0
 10
130.919
 20
112.033
 30
0.0
 11
130.919
 21
98.0338
 31
0.0
  0
LINE
  8
0
 62
     0
 10
130.919
 20
98.0338
 30
0.0
 11
116.92
 21
98.0338
 31
0.0
  0
LINE
  8
0
 62
     0
 10
116.92
 20
98.0338
 30
0.0
 11
116.92
 21
112.033
 31
0.0
  0
LINE
  8
0
 62
     0
 10
135.97
 20
112.033
 30
0.0
 11
149.969
 21
112.033
 31
0.0
  0
LINE
  8
0
 62
     0
 10
149.969
 20
112.033
 30
0.0
 11
149.969
 21
98.0338
 31
0.0
  0
LINE
  8
0
 62
     0
 10
149.969
 20
98.0338
 30
0.0
 11
135.97
 21
98.0338
 31
0.0
  0
LINE
  8
0
 62
     0
 10
135.97
 20
98.0338
 30
0.0
 11
135.97
 21
112.033
 31
0.0
  0
LINE
  8
0
 62
     0
 10
155.02
 20
112.033
 30
0.0
 11
169.019
 21
112.033
 31
0.0
  0
LINE
  8
0
 62
     0
 10
169.019
 20
112.033
 30
0.0
 11
169.019
 21
98.0338
 31
0.0
  0
LINE
  8
0
 62
     0
 10
169.019
 20
98.0338
 30
0.0
 11
155.02
 21
98.0338
 31
0.0
  0
LINE
  8
0
 62
     0
 10
155.02
 20
98.0338
 30
0.0
 11
155.02
 21
112.033
 31
0.0
  0
LINE
  8
0
 62
     0
 10
174.07
 20
112.033
 30
0.0
 11
188.069
 21
112.033
 31
0.0
  0
LINE
  8
0
 62
     0
 10
188.069
 20
112.033
 30
0.0
 11
188.069
 21
98.0338
 31
0.0
  0
LINE
  8
0
 62
     0
 10
188.069
 20
98.0338
 30
0.0
 11
174.07
 21
98.0338
 31
0.0
  0
LINE
  8
0
 62
     0
 10
174.07
 20
98.0338
 30
0.0
 11
174.07
 21
112.033
 31
0.0
  0
LINE
  8
0
 62
     0
 10
193.12
 20
112.033
 30
0.0
 11
207.119
 21
112.033
 31
0.0
  0
LINE
  8
0
 62
     0
 10
207.119
 20
112.033
 30
0.0
 11
207.119
 21
98.0338
 31
0.0
  0
LINE
  8
0
 62
     0
 10
207.119
 20
98.0338
 30
0.0
 11
193.12
 21
98.0338
 31
0.0
  0
LINE
  8
0
 62
     0
 10
193.12
 20
98.0338
 30
0.0
 11
193.12
 21
112.033
 31
0.0
  0
LINE
  8
0
 62
     0
 10
212.17
 20
112.033
 30
0.0
 11
226.169
 21
112.033
 31
0.0
  0
LINE
  8
0
 62
     0
 10
226.169
 20
112.033
 30
0.0
 11
226.169
 21
98.0338
 31
0.0
  0
LINE
  8
0
 62
     0
 10
226.169
 20
98.0338
 30
0.0
 11
212.17
 21
98.0338
 31
0.0
  0
LINE
  8
0
 62
     0
 10
212.17
 20
98.0338
 30
0.0
 11
212.17
 21
112.033
 31
0.0
  0
LINE
  8
0
 62
     0
 10
231.22
 20
112.033
 30
0.0
 11
245.219
 21
112.033
 31
0.0
  0
LINE
  8
0
 62
     0
 10
245.219
 20
112.033
 30
0.0
 11
245.219
 21
98.0338
 31
0.0
  0
LINE
  8
0
 62
     0
 10
245.219
 20
98.0338
 30
0.0
 11
231.22
 21
98.0338
 31
0.0
  0
LINE
  8
0
 62
     0
 10
231.22
 20
98.0338
 30
0.0
 11
231.22
 21
112.033
 31
0.0
  0
LINE
  8
0
 62
     0
 10
250.27
 20
112.033
 30
0.0
 11
264.269
 21
112.033
 31
0.0
  0
LINE
  8
0
 62
     0
 10
264.269
 20
112.033
 30
0.0
 11
264.269
 21
98.0338
 31
0.0
  0
LINE
  8
0
 62
     0
 10
264.269
 20
98.0338
 30
0.0
 11
250.27
 21
98.0338
 31
0.0
  0
LINE
  8
0
 62
     0
 10
250.27
 20
98.0338
 30
0.0
 11
250.27
 21
112.033
 31
0.0
  0
LINE
  8
0
 62
     0
 10
269.32
 20
112.033
 30
0.0
 11
283.319
 21
112.033
 31
0.0
  0
LINE
  8
0
 62
     0
 10
283.319
 20
112.033
 30
0.0
 11
283.319
 21
98.0338
 31
0.0
  0
LINE
  8
0
 62
     0
 10
283.319
 20
98.0338
 30
0.0
 11
269.32
 21
98.0338
 31
0.0
  0
LINE
  8
0
 62
     0
 10
269.32
 20
98.0338
 30
0.0
 11
269.32
 21
112.033
 31
0.0
  0
LINE
  8
0
 62
     0
 10
288.37
 20
112.033
 30
0.0
 11
302.369
 21
112.033
 31
0.0
  0
LINE
  8
0
 62
     0
 10
302.369
 20
112.033
 30
0.0
 11
302.369
 21
98.0338
 31
0.0
  0
LINE
  8
0
 62
     0
 10
302.369
 20
98.0338
 30
0.0
 11
288.37
 21
98.0338
 31
0.0
  0
LINE
  8
0
 62
     0
 10
288.37
 20
98.0338
 30
0.0
 11
288.37
 21
112.033
 31
0.0
  0
LINE
  8
0
 62
     0
 10
307.42
 20
112.033
 30
0.0
 11
321.419
 21
112.033
 31
0.0
  0
LINE
  8
0
 62
     0
 10
321.419
 20
112.033
 30
0.0
 11
321.419
 21
98.0338
 31
0.0
  0
LINE
  8
0
 62
     0
 10
321.419
 20
98.0338
 30
0.0
 11
307.42
 21
98.0338
 31
0.0
  0
LINE
  8
0
 62
     0
 10
307.42
 20
98.0338
 30
0.0
 11
307.42
 21
112.033
 31
0.0
  0
LINE
  8
0
 62
     0
 10
345.52
 20
112.033
 30
0.0
 11
359.519
 21
112.033
 31
0.0
  0
LINE
  8
0
 62
     0
 10
359.519
 20
112.033
 30
0.0
 11
359.519
 21
98.0338
 31
0.0
  0
LINE
  8
0
 62
     0
 10
359.519
 20
98.0338
 30
0.0
 11
345.52
 21
98.0338
 31
0.0
  0
LINE
  8
0
 62
     0
 10
345.52
 20
98.0338
 30
0.0
 11
345.52
 21
112.033
 31
0.0
  0
ENDSEC
  0
EOF
